<svg xmlns="http://www.w3.org/2000/svg" xmlns:xlink="http://www.w3.org/1999/xlink" width="481pt" height="230pt" viewBox="0 0 480.52 230"><g id="graph0" class="graph" transform="scale(1 1) rotate(0) translate(4 226)"><title>%3</title><polygon fill="#fff" stroke="transparent" points="-4 4 -4 -226 476.52 -226 476.52 4 -4 4"/><g id="clust1" class="cluster"><title>cluster_layer1</title><polygon fill="none" stroke="#000" points="362.52 -115 362.52 -214 464.52 -214 464.52 -115 362.52 -115"/><text x="413.52" y="-198.8" fill="#000" font-family="Times,serif" font-size="14" text-anchor="middle">layer.tar.gz</text></g><g id="clust2" class="cluster"><title>cluster_layer2</title><polygon fill="none" stroke="#000" points="362.52 -8 362.52 -107 464.52 -107 464.52 -8 362.52 -8"/><text x="413.52" y="-91.8" fill="#000" font-family="Times,serif" font-size="14" text-anchor="middle">layer.tar.gz</text></g><g id="node1" class="node"><title>tag</title><ellipse cx="11.02" cy="-98" fill="#000" stroke="#000" rx="3.5" ry="3.5"/></g><g id="node2" class="node"><title>manifest</title><polygon fill="none" stroke="#000" points="141.52 -116 83.52 -116 83.52 -80 147.52 -80 147.52 -110 141.52 -116"/><polyline fill="none" stroke="#000" points="141.52 -116 141.52 -110"/><polyline fill="none" stroke="#000" points="147.52 -110 141.52 -110"/><text x="115.52" y="-94.3" fill="#000" font-family="Times,serif" font-size="14" text-anchor="middle">manifest</text></g><g id="edge1" class="edge"><title>tag:head-&gt;manifest</title><path fill="none" stroke="#000" d="M14.9894,-98C24.6237,-98 50.1431,-98 73.0579,-98"/><polygon fill="#000" stroke="#000" points="73.337 -101.5 83.337 -98 73.337 -94.5 73.337 -101.5"/><text x="49.02" y="-101.8" fill="#000" font-family="Times,serif" font-size="14" text-anchor="middle">digest</text><text x="8.5" y="-114.272" fill="#000" font-family="Times,serif" font-size="14" text-anchor="middle">tag</text></g><g id="node3" class="node"><title>config</title><polygon fill="none" stroke="#000" points="294.52 -116 246.52 -116 246.52 -80 300.52 -80 300.52 -110 294.52 -116"/><polyline fill="none" stroke="#000" points="294.52 -116 294.52 -110"/><polyline fill="none" stroke="#000" points="300.52 -110 294.52 -110"/><text x="273.52" y="-94.3" fill="#000" font-family="Times,serif" font-size="14" text-anchor="middle">config</text></g><g id="edge2" class="edge"><title>manifest-&gt;config</title><path fill="none" stroke="#000" d="M147.8754,-98C173.5398,-98 209.4367,-98 236.2927,-98"/><polygon fill="#000" stroke="#000" points="236.464 -101.5 246.464 -98 236.464 -94.5 236.464 -101.5"/><text x="194.52" y="-101.8" fill="#000" font-family="Times,serif" font-size="14" text-anchor="middle">(image id)</text></g><g id="node4" class="node"><title>l1</title><polygon fill="none" stroke="#000" points="444.52 -171 441.52 -175 420.52 -175 417.52 -171 382.52 -171 382.52 -135 444.52 -135 444.52 -171"/><text x="413.52" y="-149.3" fill="#000" font-family="Times,serif" font-size="14" text-anchor="middle">layer.tar</text></g><g id="edge5" class="edge"><title>manifest-&gt;l1</title><path fill="none" stroke="#000" d="M147.7297,-111.4179C153.5784,-113.5149 159.6776,-115.4853 165.5204,-117 228.1655,-133.2397 301.7402,-142.7616 352.393,-147.8895"/><polygon fill="#000" stroke="#000" points="352.23 -151.39 362.524 -148.888 352.916 -144.424 352.23 -151.39"/><text x="273.52" y="-145.8" fill="#000" font-family="Times,serif" font-size="14" text-anchor="middle">layer digest</text></g><g id="node5" class="node"><title>l2</title><polygon fill="none" stroke="#000" points="444.52 -64 441.52 -68 420.52 -68 417.52 -64 382.52 -64 382.52 -28 444.52 -28 444.52 -64"/><text x="413.52" y="-42.3" fill="#000" font-family="Times,serif" font-size="14" text-anchor="middle">layer.tar</text></g><g id="edge6" class="edge"><title>manifest-&gt;l2</title><path fill="none" stroke="#000" d="M147.5251,-84.7188C172.6249,-74.9475 208.6871,-62.3115 241.5204,-56 277.7838,-49.0291 319.072,-46.456 352.1051,-45.6602"/><polygon fill="#000" stroke="#000" points="352.592 -49.152 362.523 -45.461 352.458 -42.153 352.592 -49.152"/><text x="273.52" y="-59.8" fill="#000" font-family="Times,serif" font-size="14" text-anchor="middle">layer digest</text></g><g id="edge3" class="edge"><title>config-&gt;l1</title><path fill="none" stroke="#000" d="M300.5542,-105.0907C316.4942,-109.5797 336.9243,-115.872 354.5204,-123 360.746,-125.5219 367.2045,-128.4562 373.4651,-131.4831"/><polygon fill="#000" stroke="#000" points="371.933 -134.63 382.446 -135.947 375.049 -128.362 371.933 -134.63"/><text x="339.02" y="-126.8" fill="#000" font-family="Times,serif" font-size="14" text-anchor="middle">diffid</text></g><g id="edge4" class="edge"><title>config-&gt;l2</title><path fill="none" stroke="#000" d="M300.8462,-87.8504C321.3169,-80.247 349.6613,-69.7191 372.7994,-61.1249"/><polygon fill="#000" stroke="#000" points="374.203 -64.337 382.359 -57.574 371.766 -57.775 374.203 -64.337"/><text x="339.02" y="-81.8" fill="#000" font-family="Times,serif" font-size="14" text-anchor="middle">diffid</text></g></g></svg>