<svg xmlns="http://www.w3.org/2000/svg" xmlns:xlink="http://www.w3.org/1999/xlink" width="209pt" height="143pt" viewBox="0 0 208.91 143.25"><g id="graph0" class="graph" transform="scale(1 1) rotate(0) translate(4 139.2506)"><title>%3</title><polygon fill="#fff" stroke="transparent" points="-4 4 -4 -139.251 204.914 -139.251 204.914 4 -4 4"/><g id="node1" class="node"><title>tag</title><ellipse cx="17.414" cy="-67.636" fill="#000" stroke="#000" rx="3.5" ry="3.5"/></g><g id="node4" class="node"><title>index</title><polygon fill="none" stroke="#000" points="104.914 -85.636 56.914 -85.636 56.914 -49.636 110.914 -49.636 110.914 -79.636 104.914 -85.636"/><polyline fill="none" stroke="#000" points="104.914 -85.636 104.914 -79.636"/><polyline fill="none" stroke="#000" points="110.914 -79.636 104.914 -79.636"/><text x="83.914" y="-63.936" fill="#000" font-family="Times,serif" font-size="14" text-anchor="middle">index</text></g><g id="edge1" class="edge"><title>tag:head-&gt;index</title><path fill="none" stroke="#000" d="M20.9894,-67.6362C26.1004,-67.6362 36.0446,-67.6362 46.5454,-67.6362"/><polygon fill="#000" stroke="#000" points="46.644 -71.136 56.644 -67.636 46.644 -64.136 46.644 -71.136"/><text x="14.5" y="-83.908" fill="#000" font-family="Times,serif" font-size="14" text-anchor="middle">latest</text></g><g id="node2" class="node"><title>tag2</title><ellipse cx="83.914" cy="-107.636" fill="#000" stroke="#000" rx="3.5" ry="3.5"/></g><g id="node5" class="node"><title>image</title><polygon fill="none" stroke="#000" points="194.914 -118.636 146.914 -118.636 146.914 -82.636 200.914 -82.636 200.914 -112.636 194.914 -118.636"/><polyline fill="none" stroke="#000" points="194.914 -118.636 194.914 -112.636"/><polyline fill="none" stroke="#000" points="200.914 -112.636 194.914 -112.636"/><text x="173.914" y="-96.936" fill="#000" font-family="Times,serif" font-size="14" text-anchor="middle">image</text></g><g id="edge2" class="edge"><title>tag2:head-&gt;image</title><path fill="none" stroke="#000" d="M87.7812,-107.3354C96.2802,-106.6744 117.3583,-105.035 136.5347,-103.5435"/><polygon fill="#000" stroke="#000" points="136.907 -107.025 146.606 -102.76 136.364 -100.046 136.907 -107.025"/><text x="82.86" y="-124.051" fill="#000" font-family="Times,serif" font-size="14" text-anchor="middle">amd64</text></g><g id="node3" class="node"><title>tag3</title><ellipse cx="83.914" cy="-27.636" fill="#000" stroke="#000" rx="3.5" ry="3.5"/></g><g id="node6" class="node"><title>image2</title><polygon fill="none" stroke="#000" points="194.914 -58.636 146.914 -58.636 146.914 -22.636 200.914 -22.636 200.914 -52.636 194.914 -58.636"/><polyline fill="none" stroke="#000" points="194.914 -58.636 194.914 -52.636"/><polyline fill="none" stroke="#000" points="200.914 -52.636 194.914 -52.636"/><text x="173.914" y="-36.936" fill="#000" font-family="Times,serif" font-size="14" text-anchor="middle">image</text></g><g id="edge3" class="edge"><title>tag3:head-&gt;image2</title><path fill="none" stroke="#000" d="M87.7812,-28.1948C96.2802,-29.4224 117.3583,-32.467 136.5347,-35.2369"/><polygon fill="#000" stroke="#000" points="136.208 -38.726 146.606 -36.692 137.209 -31.798 136.208 -38.726"/><text x="84.214" y="-3.8" fill="#000" font-family="Times,serif" font-size="14" text-anchor="middle">ppc64le</text></g><g id="edge4" class="edge"><title>index-&gt;image</title><path fill="none" stroke="#000" d="M110.917,-77.5373C119.1181,-80.5443 128.2739,-83.9015 137.009,-87.1043"/><polygon fill="#000" stroke="#000" points="136.025 -90.472 146.619 -90.628 138.435 -83.899 136.025 -90.472"/></g><g id="edge5" class="edge"><title>index-&gt;image2</title><path fill="none" stroke="#000" d="M110.917,-59.5353C119.1181,-57.075 128.2739,-54.3282 137.009,-51.7077"/><polygon fill="#000" stroke="#000" points="138.047 -55.051 146.619 -48.825 136.035 -48.346 138.047 -55.051"/></g></g></svg>